<svg width="66" height="32" viewBox="0 0 66 32" fill="none" xmlns="http://www.w3.org/2000/svg">
<path d="M34.2656 28.8281C34.4062 29.0156 34.4766 29.1562 34.4766 29.25C34.4766 29.3906 34.3906 29.4844 34.2188 29.5312C34.0469 29.5625 33.8281 29.5859 33.5625 29.6016C33.2969 29.6016 33.0078 29.6016 32.6953 29.6016C32.3828 29.6016 32.0859 29.6328 31.8047 29.6953C31.4453 29.7734 31.125 29.875 30.8438 30C30.5625 30.125 30.2969 30.25 30.0469 30.375C29.7969 30.5156 29.5625 30.6328 29.3438 30.7266C29.125 30.8203 28.9141 30.8672 28.7109 30.8672C28.5234 30.8672 28.3438 30.8203 28.1719 30.7266C28 30.6328 27.8359 30.5859 27.6797 30.5859C27.4453 30.5859 27.1953 30.6094 26.9297 30.6562C26.6797 30.7031 26.4375 30.7578 26.2031 30.8203C25.9844 30.8828 25.7812 30.9375 25.5938 30.9844C25.4062 31.0469 25.2656 31.0859 25.1719 31.1016C24.9531 31.1016 24.7734 31.0547 24.6328 30.9609C24.5078 30.8672 24.4453 30.7344 24.4453 30.5625C24.4453 30.1875 24.5859 29.9219 24.8672 29.7656C25.1641 29.6094 25.5703 29.5312 26.0859 29.5312C26.1641 29.5312 26.2578 29.5391 26.3672 29.5547C26.4766 29.5703 26.5859 29.5781 26.6953 29.5781C26.9609 29.5781 27.1797 29.4531 27.3516 29.2031C27.5234 28.9375 27.6562 28.6016 27.75 28.1953C27.8594 27.7734 27.9297 27.2969 27.9609 26.7656C28.0078 26.2188 28.0391 25.6719 28.0547 25.125C28.0703 24.5781 28.0781 24.0469 28.0781 23.5312C28.0938 23.0156 28.1094 22.5625 28.125 22.1719C28.2031 20.75 28.2656 19.2812 28.3125 17.7656C28.3594 16.25 28.3828 14.8281 28.3828 13.5C28.3828 12.3906 28.3594 11.4375 28.3125 10.6406C28.0938 10.7188 27.8984 10.8281 27.7266 10.9688C27.5547 11.1094 27.3984 11.2656 27.2578 11.4375C27.1172 11.6094 26.9844 11.7969 26.8594 12C26.75 12.1875 26.6484 12.3672 26.5547 12.5391C26.5391 12.5547 26.5312 12.5781 26.5312 12.6094C26.5312 12.6406 26.5312 12.6797 26.5312 12.7266C26.5469 12.7734 26.5547 12.8125 26.5547 12.8438C26.5547 12.8594 26.5234 12.9219 26.4609 13.0312C26.3984 13.1406 26.3203 13.2656 26.2266 13.4062C26.1328 13.5312 26.0312 13.6641 25.9219 13.8047C25.8281 13.9453 25.75 14.0469 25.6875 14.1094C25.4844 14.3281 25.2109 14.7031 24.8672 15.2344C24.5391 15.75 24.1641 16.3672 23.7422 17.0859C23.3359 17.8047 22.9062 18.5938 22.4531 19.4531C22.0156 20.3125 21.5781 21.1875 21.1406 22.0781C20.7188 22.9688 20.3203 23.8438 19.9453 24.7031C19.5859 25.5625 19.2812 26.3516 19.0312 27.0703C18.9062 27.3984 18.8125 27.7266 18.75 28.0547C18.6875 28.3828 18.6016 28.6875 18.4922 28.9688C18.3984 29.2344 18.2656 29.4531 18.0938 29.625C17.9375 29.7812 17.7031 29.8594 17.3906 29.8594C17.2656 29.8594 17.1641 29.8359 17.0859 29.7891C17.0078 29.7266 16.9531 29.6953 16.9219 29.6953C16.7344 29.7109 16.5703 29.75 16.4297 29.8125C16.3047 29.875 16.1875 29.9062 16.0781 29.9062C15.9375 29.8594 15.8125 29.7969 15.7031 29.7188C15.6094 29.6562 15.5234 29.5781 15.4453 29.4844C15.3828 29.375 15.3516 29.2578 15.3516 29.1328C15.3516 29.1016 15.3516 29.0703 15.3516 29.0391C15.3672 28.9922 15.375 28.9531 15.375 28.9219C15.375 28.9062 15.3672 28.8906 15.3516 28.875C15.3516 28.8594 15.3516 28.8438 15.3516 28.8281C15.1953 28.5 15.0391 28.1641 14.8828 27.8203C14.7422 27.4609 14.6094 27.0391 14.4844 26.5547V26.2734C14.4844 26.1328 14.4297 25.8984 14.3203 25.5703C14.2266 25.2266 14.0469 24.7969 13.7812 24.2812C13.7031 24.0156 13.6562 23.7422 13.6406 23.4609C13.625 23.1797 13.5547 22.9297 13.4297 22.7109C13.3984 22.6641 13.3594 22.6328 13.3125 22.6172C13.2656 22.6016 13.2422 22.5312 13.2422 22.4062C13.2422 22.375 13.2422 22.3359 13.2422 22.2891C13.2578 22.2422 13.2656 22.2031 13.2656 22.1719C13.2031 21.9375 13.1016 21.6406 12.9609 21.2812C12.8203 20.9062 12.6797 20.5469 12.5391 20.2031C12.3984 19.8438 12.2734 19.5391 12.1641 19.2891C12.0703 19.0391 12.0234 18.9062 12.0234 18.8906C12.0234 18.8125 12.0312 18.7422 12.0469 18.6797C12.0625 18.6016 12.0703 18.5312 12.0703 18.4688C12.0703 18.375 12.0078 18.2656 11.8828 18.1406C11.7734 18.0156 11.7031 17.8984 11.6719 17.7891C11.5625 17.5234 11.4766 17.2344 11.4141 16.9219C11.3672 16.6094 11.2812 16.2656 11.1562 15.8906C11.1094 15.7344 11.0391 15.5391 10.9453 15.3047C10.8672 15.0547 10.7812 14.7891 10.6875 14.5078C10.5938 14.2266 10.4922 13.9297 10.3828 13.6172C10.2891 13.3047 10.1953 13.0078 10.1016 12.7266C10.0703 12.6484 10.0469 12.5469 10.0312 12.4219C10.0156 12.2812 9.98438 12.1484 9.9375 12.0234C9.92188 11.9922 9.88281 11.9297 9.82031 11.8359C9.75781 11.7266 9.69531 11.6172 9.63281 11.5078C9.57031 11.3828 9.51562 11.2734 9.46875 11.1797C9.42188 11.0859 9.39844 11.0234 9.39844 10.9922V10.9688C9.24219 11 9.11719 11.1875 9.02344 11.5312C8.94531 11.875 8.875 12.2656 8.8125 12.7031C8.76562 13.1406 8.71875 13.5703 8.67188 13.9922C8.64062 14.3984 8.59375 14.6797 8.53125 14.8359C8.45312 15.0391 8.41406 15.3047 8.41406 15.6328C8.42969 15.9453 8.41406 16.3125 8.36719 16.7344C8.33594 17.0156 8.26562 17.2734 8.15625 17.5078C8.04688 17.7422 7.99219 17.9922 7.99219 18.2578C7.99219 18.3828 7.99219 18.5078 7.99219 18.6328C8.00781 18.7422 8.01562 18.8594 8.01562 18.9844C8.01562 19.3438 7.96094 19.6875 7.85156 20.0156C7.75781 20.3438 7.6875 20.7734 7.64062 21.3047C7.64062 21.3359 7.64062 21.375 7.64062 21.4219C7.65625 21.4688 7.66406 21.5078 7.66406 21.5391C7.66406 21.6172 7.64062 21.6875 7.59375 21.75C7.54688 21.7969 7.50781 21.8203 7.47656 21.8203C7.39844 22.3047 7.33594 22.7734 7.28906 23.2266C7.25781 23.6797 7.20312 24.1406 7.125 24.6094C7.04688 25 6.95312 25.3828 6.84375 25.7578C6.75 26.1172 6.67188 26.5 6.60938 26.9062C6.54688 27.3125 6.50781 27.7188 6.49219 28.125C6.49219 28.5312 6.46875 28.9375 6.42188 29.3438C6.8125 29.3281 7.21094 29.2656 7.61719 29.1562C8.03906 29.0312 8.44531 28.9688 8.83594 28.9688C9.27344 28.9688 9.64062 29.0938 9.9375 29.3438C9.89062 29.5312 9.84375 29.6719 9.79688 29.7656C9.75 29.8438 9.6875 29.9062 9.60938 29.9531C9.53125 29.9844 9.42969 30 9.30469 30C9.19531 30.0156 9.05469 30.0312 8.88281 30.0469C8.75781 30.0625 8.67969 30.0938 8.64844 30.1406C8.63281 30.1875 8.59375 30.2188 8.53125 30.2344C8.26562 30.2969 7.99219 30.3359 7.71094 30.3516C7.44531 30.3828 7.17969 30.4062 6.91406 30.4219C6.64844 30.4531 6.38281 30.4922 6.11719 30.5391C5.86719 30.5859 5.625 30.6562 5.39062 30.75C5.29688 30.7969 5.15625 30.8359 4.96875 30.8672C4.79688 30.8984 4.60156 30.9219 4.38281 30.9375C4.16406 30.9688 3.9375 30.9922 3.70312 31.0078C3.48438 31.0391 3.28906 31.0703 3.11719 31.1016C2.89844 31.1328 2.625 31.1953 2.29688 31.2891C1.96875 31.3828 1.66406 31.4297 1.38281 31.4297C1.16406 31.4297 0.984375 31.3828 0.84375 31.2891C0.71875 31.1953 0.65625 31.0156 0.65625 30.75C0.65625 30.5 0.742188 30.3281 0.914062 30.2344C1.08594 30.1562 1.28906 30.1016 1.52344 30.0703C1.77344 30.0547 2.02344 30.0391 2.27344 30.0234C2.53906 30.0234 2.75781 29.9688 2.92969 29.8594C3.11719 29.75 3.27344 29.6172 3.39844 29.4609C3.53906 29.3047 3.64844 29.1484 3.72656 28.9922C3.80469 28.8359 3.86719 28.7031 3.91406 28.5938C3.96094 28.4688 3.98438 28.3906 3.98438 28.3594C3.98438 28.2812 3.97656 28.2109 3.96094 28.1484C3.96094 28.0859 3.96094 28.0156 3.96094 27.9375C3.96094 27.8594 3.96875 27.8047 3.98438 27.7734C4.15625 27.2734 4.33594 26.7969 4.52344 26.3438C4.72656 25.875 4.89062 25.3594 5.01562 24.7969C5.03125 24.7812 5.03906 24.75 5.03906 24.7031C5.03906 24.6562 5.03125 24.6094 5.01562 24.5625C5.01562 24.5156 5.01562 24.4766 5.01562 24.4453C5.0625 24.3047 5.11719 24.1328 5.17969 23.9297C5.25781 23.7109 5.33594 23.4844 5.41406 23.25C5.50781 23.0156 5.59375 22.7734 5.67188 22.5234C5.76562 22.2734 5.84375 22.0391 5.90625 21.8203V21.7266C5.90625 21.6641 5.89844 21.6094 5.88281 21.5625C5.88281 21.5156 5.88281 21.4688 5.88281 21.4219C5.88281 21.3594 5.9375 21.2656 6.04688 21.1406C6.15625 21 6.22656 20.8203 6.25781 20.6016C6.33594 20.2266 6.36719 19.8672 6.35156 19.5234C6.35156 19.1797 6.375 18.8438 6.42188 18.5156C6.48438 18.1094 6.5625 17.7188 6.65625 17.3438C6.75 16.9688 6.84375 16.6016 6.9375 16.2422C7.03125 15.8828 7.10938 15.5312 7.17188 15.1875C7.25 14.8281 7.29688 14.4688 7.3125 14.1094C7.32812 13.8281 7.36719 13.5391 7.42969 13.2422C7.49219 12.9453 7.5625 12.6484 7.64062 12.3516C7.73438 12.0391 7.8125 11.7266 7.875 11.4141C7.95312 11.1016 8 10.7812 8.01562 10.4531C8.03125 10.1406 8.08594 9.84375 8.17969 9.5625C8.27344 9.26562 8.33594 8.97656 8.36719 8.69531C8.41406 8.33594 8.4375 7.96094 8.4375 7.57031C8.45312 7.16406 8.48438 6.78125 8.53125 6.42188C8.5625 6.25 8.625 6.04688 8.71875 5.8125C8.82812 5.5625 8.88281 5.35938 8.88281 5.20312C8.88281 5.14062 8.84375 5.0625 8.76562 4.96875C8.70312 4.875 8.67188 4.76562 8.67188 4.64062C8.67188 4.60938 8.73438 4.53906 8.85938 4.42969C8.98438 4.30469 9.14844 4.16406 9.35156 4.00781C9.55469 3.83594 9.78125 3.65625 10.0312 3.46875C10.2812 3.28125 10.5391 3.10156 10.8047 2.92969C10.8203 2.91406 10.8672 2.90625 10.9453 2.90625C11.0391 2.90625 11.1406 2.90625 11.25 2.90625C11.3906 2.90625 11.5 2.91406 11.5781 2.92969C11.6562 2.92969 11.7031 2.96094 11.7188 3.02344C11.75 3.07031 11.7656 3.14844 11.7656 3.25781C11.7656 3.36719 11.7656 3.51562 11.7656 3.70312C11.7656 3.875 11.7578 4.05469 11.7422 4.24219C11.7422 4.41406 11.7422 4.59375 11.7422 4.78125C11.7422 5 11.75 5.17969 11.7656 5.32031C11.7812 5.44531 11.7969 5.57031 11.8125 5.69531C11.8438 5.80469 11.875 5.91406 11.9062 6.02344C11.9531 6.13281 12 6.26562 12.0469 6.42188C12.0938 6.57812 12.1328 6.76562 12.1641 6.98438C12.1953 7.1875 12.2656 7.40625 12.375 7.64062C12.4062 7.70312 12.4688 7.80469 12.5625 7.94531C12.6562 8.07031 12.7109 8.14844 12.7266 8.17969C12.8359 8.52344 12.8906 8.875 12.8906 9.23438C12.8906 9.57812 12.9531 9.92188 13.0781 10.2656C13.1094 10.3281 13.1719 10.3984 13.2656 10.4766C13.375 10.5547 13.4297 10.6172 13.4297 10.6641C13.4297 10.6953 13.4219 10.7344 13.4062 10.7812C13.4062 10.8281 13.4062 10.8672 13.4062 10.8984C13.4062 10.9453 13.4141 10.9688 13.4297 10.9688C13.5391 11.0625 13.6328 11.2188 13.7109 11.4375C13.7891 11.6562 13.8594 11.9062 13.9219 12.1875C13.9844 12.4531 14.0391 12.7344 14.0859 13.0312C14.1484 13.3125 14.2188 13.5625 14.2969 13.7812C14.3438 13.9219 14.3984 14.0625 14.4609 14.2031C14.5391 14.3281 14.6094 14.4766 14.6719 14.6484C14.7031 14.7734 14.7266 14.9219 14.7422 15.0938C14.7578 15.25 14.7891 15.3906 14.8359 15.5156C14.9453 15.8281 15.1094 16.1953 15.3281 16.6172C15.5625 17.0391 15.75 17.4922 15.8906 17.9766V18.2578C15.8906 18.3672 15.9453 18.5312 16.0547 18.75C16.1797 18.9531 16.2969 19.1562 16.4062 19.3594C16.5156 19.6875 16.6016 20.0625 16.6641 20.4844C16.7266 20.8906 16.8125 21.2812 16.9219 21.6562C16.9531 21.7031 17.0156 21.7656 17.1094 21.8438C17.2188 21.9062 17.2812 21.9531 17.2969 21.9844C17.3125 22.0781 17.3203 22.2031 17.3203 22.3594C17.3359 22.5156 17.3516 22.6719 17.3672 22.8281C17.3984 22.9844 17.4453 23.1172 17.5078 23.2266C17.5859 23.3359 17.7031 23.3906 17.8594 23.3906C18 23.3906 18.1484 23.2969 18.3047 23.1094C18.4766 22.9062 18.6406 22.6641 18.7969 22.3828C18.9688 22.1016 19.1328 21.8125 19.2891 21.5156C19.4609 21.2188 19.6094 20.9688 19.7344 20.7656C19.75 20.7344 19.8281 20.625 19.9688 20.4375C20.1094 20.2344 20.2656 20 20.4375 19.7344C20.4688 19.6562 20.4922 19.5703 20.5078 19.4766C20.5234 19.3672 20.5547 19.2734 20.6016 19.1953C20.6328 19.1641 20.6875 19.1406 20.7656 19.125C20.8594 19.0938 20.9219 19.0625 20.9531 19.0312C21.0156 18.9531 21.0391 18.8672 21.0234 18.7734C21.0234 18.6641 21.0625 18.5781 21.1406 18.5156C21.1719 18.4688 21.2266 18.4375 21.3047 18.4219C21.3984 18.4062 21.4609 18.375 21.4922 18.3281C21.5547 18.25 21.5781 18.1641 21.5625 18.0703C21.5469 17.9609 21.5781 17.8672 21.6562 17.7891C21.6875 17.7578 21.75 17.7344 21.8438 17.7188C21.9375 17.6875 21.9922 17.6562 22.0078 17.625C22.1328 17.4062 22.2188 17.1562 22.2656 16.875C22.3125 16.5781 22.4062 16.3047 22.5469 16.0547C22.5625 16.0234 22.6172 16 22.7109 15.9844C22.8047 15.9531 22.8594 15.9219 22.875 15.8906C22.9531 15.7344 23 15.6172 23.0156 15.5391C23.0312 15.4609 23.1016 15.3359 23.2266 15.1641C23.3359 15.0078 23.4609 14.8672 23.6016 14.7422C23.7422 14.6016 23.8516 14.4531 23.9297 14.2969C24.0078 14.1875 24.0391 14.0781 24.0234 13.9688C24.0078 13.8438 24.0391 13.7188 24.1172 13.5938C24.1797 13.4688 24.2891 13.3281 24.4453 13.1719C24.6016 13 24.7188 12.7891 24.7969 12.5391C24.8594 12.2891 25.0312 12.0156 25.3125 11.7188C25.5938 11.4062 25.8281 11.1016 26.0156 10.8047C26.2031 10.5078 26.3594 10.2578 26.4844 10.0547C26.6094 9.83594 26.7188 9.64062 26.8125 9.46875C26.9219 9.29688 27.0312 9.125 27.1406 8.95312C27.2656 8.76562 27.4219 8.5625 27.6094 8.34375C27.7031 8.21875 27.8281 8.08594 27.9844 7.94531C28.1406 7.78906 28.3047 7.57031 28.4766 7.28906C28.5078 7.22656 28.5312 7.14062 28.5469 7.03125C28.5625 6.92188 28.5938 6.83594 28.6406 6.77344C28.7344 6.66406 28.8594 6.57812 29.0156 6.51562C29.1719 6.45312 29.2891 6.35938 29.3672 6.23438C29.5547 5.95312 29.7031 5.65625 29.8125 5.34375C29.9219 5.01562 30.0547 4.71875 30.2109 4.45312C30.3672 4.17188 30.5625 3.94531 30.7969 3.77344C31.0312 3.60156 31.375 3.51562 31.8281 3.51562C32.2031 3.51562 32.4609 3.625 32.6016 3.84375C32.7422 4.04688 32.8125 4.30469 32.8125 4.61719C32.8125 4.88281 32.7812 5.17188 32.7188 5.48438C32.6562 5.79688 32.5859 6.10938 32.5078 6.42188C32.4297 6.75 32.3672 7.125 32.3203 7.54688C32.2891 7.96875 32.2578 8.42188 32.2266 8.90625C32.2109 9.375 32.1953 9.85938 32.1797 10.3594C32.1797 10.8594 32.1719 11.3594 32.1562 11.8594C32.125 12.7344 32.0234 13.6016 31.8516 14.4609C31.6953 15.3203 31.6172 16.1719 31.6172 17.0156C31.6172 17.2188 31.6172 17.4219 31.6172 17.625C31.6328 17.8281 31.6406 18.0312 31.6406 18.2344C31.6406 18.5469 31.6094 18.8125 31.5469 19.0312C31.4844 19.2344 31.4531 19.4688 31.4531 19.7344C31.4531 19.9531 31.4844 20.1953 31.5469 20.4609C31.6094 20.7266 31.6406 20.9531 31.6406 21.1406C31.5781 21.3281 31.5156 21.5781 31.4531 21.8906C31.3906 22.1875 31.3281 22.5156 31.2656 22.875C31.2188 23.2344 31.1797 23.6172 31.1484 24.0234C31.1172 24.4141 31.1016 24.8047 31.1016 25.1953C31.1016 25.3516 31.125 25.5312 31.1719 25.7344C31.2344 25.9219 31.2656 26.0781 31.2656 26.2031C31.2656 26.4531 31.2344 26.6953 31.1719 26.9297C31.1094 27.1484 31.0781 27.3672 31.0781 27.5859C31.0781 27.7734 31.1094 27.9453 31.1719 28.1016C31.2344 28.2578 31.3047 28.3984 31.3828 28.5234C31.4766 28.6328 31.5703 28.7188 31.6641 28.7812C31.7578 28.8438 31.8359 28.875 31.8984 28.875C32.0391 28.875 32.2031 28.8594 32.3906 28.8281C32.5781 28.7812 32.7656 28.7344 32.9531 28.6875C33.1406 28.625 33.3047 28.5781 33.4453 28.5469C33.5859 28.5 33.6797 28.4766 33.7266 28.4766C33.8203 28.4922 33.9141 28.5391 34.0078 28.6172C34.1172 28.6797 34.2031 28.75 34.2656 28.8281ZM40.3125 26.9531C40.3281 27 40.3359 27.0703 40.3359 27.1641C40.3359 27.3828 40.2656 27.5469 40.125 27.6562C39.9844 27.75 39.875 27.8672 39.7969 28.0078C39.6406 28.3203 39.5 28.6641 39.375 29.0391C39.2656 29.3984 39.1406 29.7344 39 30.0469C38.875 30.375 38.7266 30.6484 38.5547 30.8672C38.3828 31.0859 38.1641 31.1953 37.8984 31.1953C37.5234 31.1953 37.2656 31.1016 37.125 30.9141C37 30.7266 36.9375 30.4609 36.9375 30.1172C36.9375 29.9297 36.9531 29.7031 36.9844 29.4375C37.0156 29.1719 37.0469 28.9062 37.0781 28.6406C37.125 28.3594 37.1719 28.1016 37.2188 27.8672C37.2656 27.6328 37.3047 27.4531 37.3359 27.3281C37.3984 27.0938 37.5234 26.8828 37.7109 26.6953C37.8984 26.4922 38.1875 26.3516 38.5781 26.2734C38.6094 26.2578 38.6562 26.2266 38.7188 26.1797C38.7812 26.1172 38.8594 26.0859 38.9531 26.0859C39.0312 26.0859 39.0781 26.1016 39.0938 26.1328C39.125 26.1641 39.1484 26.2031 39.1641 26.25C39.1797 26.2812 39.1875 26.3203 39.1875 26.3672C39.2031 26.3984 39.2266 26.4219 39.2578 26.4375C39.3672 26.5 39.4766 26.5391 39.5859 26.5547C39.6953 26.5547 39.7969 26.5625 39.8906 26.5781C39.9844 26.5938 40.0625 26.625 40.125 26.6719C40.2031 26.7188 40.2656 26.8125 40.3125 26.9531ZM65.9531 17.6953C65.9531 18.2891 65.9062 18.9141 65.8125 19.5703C65.7344 20.2266 65.6172 20.8672 65.4609 21.4922C65.3047 22.1172 65.1172 22.7109 64.8984 23.2734C64.6953 23.8203 64.4688 24.2969 64.2188 24.7031C64.1875 24.75 64.1484 24.7656 64.1016 24.75C64.0703 24.7188 64.0547 24.7578 64.0547 24.8672C64.0078 25.0234 63.9453 25.1406 63.8672 25.2188C63.8047 25.2812 63.7344 25.3281 63.6562 25.3594C63.5781 25.3906 63.4922 25.4219 63.3984 25.4531C63.3047 25.4688 63.2266 25.5078 63.1641 25.5703C63.0859 25.6328 62.9688 25.7734 62.8125 25.9922C62.6562 26.1953 62.4844 26.4141 62.2969 26.6484C62.1094 26.8672 61.9297 27.0703 61.7578 27.2578C61.5859 27.4297 61.4531 27.5156 61.3594 27.5156C61.3281 27.5156 61.2891 27.5078 61.2422 27.4922C61.1953 27.4766 61.1562 27.4688 61.125 27.4688C61.0781 27.4688 61.0547 27.4766 61.0547 27.4922C60.9141 27.6641 60.6953 27.8438 60.3984 28.0312C60.1172 28.2188 59.8203 28.3984 59.5078 28.5703C59.1953 28.7266 58.9062 28.8672 58.6406 28.9922C58.375 29.1172 58.1875 29.2031 58.0781 29.25C57.875 29.3594 57.6719 29.4453 57.4688 29.5078C57.2656 29.5547 57.0078 29.6406 56.6953 29.7656C56.6172 29.7969 56.5156 29.8594 56.3906 29.9531C56.2812 30.0469 56.2109 30.1016 56.1797 30.1172C55.5703 30.2734 54.7734 30.3516 53.7891 30.3516C52.8047 30.3672 51.7266 30.4062 50.5547 30.4688C50.3359 30.4844 50.1016 30.5156 49.8516 30.5625C49.6016 30.6094 49.3672 30.6328 49.1484 30.6328C48.8828 30.6328 48.6328 30.6172 48.3984 30.5859C48.1641 30.5703 47.9141 30.5625 47.6484 30.5625C47.4141 30.5625 47.1562 30.5938 46.875 30.6562C46.5938 30.7344 46.3672 30.7891 46.1953 30.8203C46.0859 30.8203 46 30.7891 45.9375 30.7266C45.8906 30.6641 45.8594 30.6328 45.8438 30.6328C45.7031 30.6328 45.5234 30.6406 45.3047 30.6562C45.1016 30.6875 44.8906 30.7031 44.6719 30.7031C44.4688 30.7031 44.2969 30.6875 44.1562 30.6562C44.0156 30.625 43.9453 30.5547 43.9453 30.4453C43.9453 30.2891 44.0859 30.1016 44.3672 29.8828C44.6484 29.6641 44.9062 29.3906 45.1406 29.0625C45.2812 28.8438 45.3906 28.6953 45.4688 28.6172C45.5469 28.5391 45.6172 28.4922 45.6797 28.4766C45.7578 28.4609 45.8359 28.4609 45.9141 28.4766C45.9922 28.4766 46.0859 28.4375 46.1953 28.3594C46.3047 28.3125 46.3984 28.2109 46.4766 28.0547C46.5703 27.8984 46.7109 27.7734 46.8984 27.6797C46.9766 27.6328 47.0703 27.6094 47.1797 27.6094C47.3047 27.6094 47.3828 27.5703 47.4141 27.4922C47.4453 27.4453 47.4766 27.3281 47.5078 27.1406C47.5547 26.9375 47.5938 26.7188 47.625 26.4844C47.6562 26.2344 47.6797 25.9922 47.6953 25.7578C47.7266 25.5234 47.75 25.3438 47.7656 25.2188C47.8281 24.7969 47.875 24.4219 47.9062 24.0938C47.9531 23.75 47.9922 23.4219 48.0234 23.1094C48.0703 22.7969 48.1094 22.4766 48.1406 22.1484C48.1875 21.8047 48.2422 21.4297 48.3047 21.0234C48.3203 20.9141 48.3359 20.7656 48.3516 20.5781C48.3672 20.3906 48.3828 20.1875 48.3984 19.9688C48.4297 19.75 48.4609 19.5391 48.4922 19.3359C48.5391 19.1172 48.5859 18.9219 48.6328 18.75C48.7891 18.2812 48.8984 17.7109 48.9609 17.0391C49.0234 16.3672 49.0703 15.6875 49.1016 15C49.1328 14.3125 49.1562 13.6641 49.1719 13.0547C49.2031 12.4297 49.2578 11.9375 49.3359 11.5781C49.3828 11.3594 49.4531 11.1406 49.5469 10.9219C49.6562 10.7031 49.7109 10.4844 49.7109 10.2656C49.7109 10.1406 49.7031 10.0234 49.6875 9.91406C49.6719 9.80469 49.6641 9.6875 49.6641 9.5625C49.6641 9.46875 49.6875 9.32812 49.7344 9.14062C49.7812 8.9375 49.8281 8.72656 49.875 8.50781C49.9219 8.28906 49.9688 8.07031 50.0156 7.85156C50.0625 7.63281 50.0859 7.44531 50.0859 7.28906C50.0859 7.03906 49.9844 6.875 49.7812 6.79688C49.5938 6.71875 49.3984 6.67969 49.1953 6.67969C48.9297 6.67969 48.6406 6.71094 48.3281 6.77344C48.0312 6.82031 47.7422 6.84375 47.4609 6.84375C47.3828 6.84375 47.2969 6.84375 47.2031 6.84375C47.1094 6.82812 47.0234 6.82031 46.9453 6.82031C46.6797 6.82031 46.4609 6.85938 46.2891 6.9375C46.1328 7.01562 45.9844 7.10938 45.8438 7.21875C45.7188 7.3125 45.5938 7.39844 45.4688 7.47656C45.3594 7.55469 45.2344 7.59375 45.0938 7.59375C44.9688 7.59375 44.8672 7.57812 44.7891 7.54688C44.8203 7.29688 44.9062 7.07031 45.0469 6.86719C45.2031 6.66406 45.3828 6.47656 45.5859 6.30469C45.7891 6.11719 46 5.94531 46.2188 5.78906C46.4531 5.63281 46.6797 5.46094 46.8984 5.27344C47.0234 5.16406 47.1562 5.02344 47.2969 4.85156C47.4375 4.67969 47.5859 4.50781 47.7422 4.33594C47.9141 4.16406 48.0859 4.00781 48.2578 3.86719C48.4297 3.71094 48.6172 3.59375 48.8203 3.51562C48.9141 3.48438 49.0938 3.46875 49.3594 3.46875C49.625 3.46875 49.9062 3.46094 50.2031 3.44531C50.5156 3.42969 50.8047 3.40625 51.0703 3.375C51.3359 3.34375 51.5156 3.27344 51.6094 3.16406C51.6719 3.10156 51.6953 3.01562 51.6797 2.90625C51.6797 2.79687 51.7109 2.71094 51.7734 2.64844C51.8359 2.58594 51.9141 2.53125 52.0078 2.48438C52.1172 2.4375 52.2188 2.39062 52.3125 2.34375C52.4062 2.29688 52.4844 2.25 52.5469 2.20312C52.625 2.15625 52.6641 2.10938 52.6641 2.0625C52.6641 2.03125 52.6562 1.99219 52.6406 1.94531C52.6406 1.89844 52.6406 1.85937 52.6406 1.82812C52.6406 1.76562 52.6875 1.71094 52.7812 1.66406C52.8906 1.60156 52.9688 1.52344 53.0156 1.42969C53.0312 1.39844 53.0625 1.32813 53.1094 1.21875C53.1562 1.09375 53.2109 0.96875 53.2734 0.84375C53.3359 0.71875 53.3984 0.609375 53.4609 0.515625C53.5234 0.421875 53.5781 0.375 53.625 0.375C53.6875 0.375 53.7734 0.40625 53.8828 0.46875C54.0078 0.515625 54.0703 0.554688 54.0703 0.585938C54.0703 0.679688 54.0547 0.820312 54.0234 1.00781C53.9922 1.17969 53.9531 1.375 53.9062 1.59375C53.8594 1.79688 53.8203 2.01562 53.7891 2.25C53.7578 2.46875 53.7422 2.67969 53.7422 2.88281C53.7422 3.11719 53.7734 3.3125 53.8359 3.46875C53.9141 3.60938 54.0625 3.67969 54.2812 3.67969C54.3594 3.67969 54.4297 3.67969 54.4922 3.67969C54.5703 3.66406 54.6719 3.65625 54.7969 3.65625C54.8906 3.65625 55.0156 3.67188 55.1719 3.70312C55.3281 3.71875 55.5391 3.77344 55.8047 3.86719C55.8828 3.89844 55.9531 3.96875 56.0156 4.07812C56.0938 4.1875 56.1797 4.24219 56.2734 4.24219C56.3203 4.24219 56.3672 4.24219 56.4141 4.24219C56.4766 4.22656 56.5312 4.21875 56.5781 4.21875H56.6953C56.7422 4.23438 56.8359 4.27344 56.9766 4.33594C57.1328 4.38281 57.3047 4.44531 57.4922 4.52344C57.6797 4.58594 57.8594 4.65625 58.0312 4.73438C58.2031 4.8125 58.3359 4.875 58.4297 4.92188C58.4766 4.9375 58.5078 4.99219 58.5234 5.08594C58.5547 5.17969 58.5859 5.24219 58.6172 5.27344C58.8203 5.36719 59.0625 5.49219 59.3438 5.64844C59.6406 5.78906 59.9219 5.95312 60.1875 6.14062C60.3125 6.23438 60.4219 6.35156 60.5156 6.49219C60.625 6.61719 60.75 6.73438 60.8906 6.84375C61.0625 6.98438 61.2266 7.08594 61.3828 7.14844C61.5547 7.21094 61.6797 7.28125 61.7578 7.35938C61.8828 7.5 61.9531 7.65625 61.9688 7.82812C61.9844 7.98438 62.0312 8.125 62.1094 8.25C62.2812 8.51562 62.5 8.78906 62.7656 9.07031C63.0469 9.33594 63.2969 9.64062 63.5156 9.98438C63.5938 10.125 63.6484 10.2891 63.6797 10.4766C63.7109 10.6641 63.7734 10.8516 63.8672 11.0391C63.8984 11.1016 63.9531 11.1875 64.0312 11.2969C64.1094 11.3906 64.1875 11.5 64.2656 11.625C64.3438 11.7344 64.4141 11.8516 64.4766 11.9766C64.5391 12.0859 64.5703 12.1953 64.5703 12.3047C64.5703 12.3359 64.5625 12.3828 64.5469 12.4453C64.5469 12.4922 64.5469 12.5312 64.5469 12.5625C64.5469 12.5938 64.6094 12.6875 64.7344 12.8438C64.8594 13 64.9219 13.125 64.9219 13.2188C64.9219 13.25 64.9141 13.2969 64.8984 13.3594C64.8984 13.4062 64.8984 13.4453 64.8984 13.4766V13.5C65.0547 13.625 65.1953 13.8594 65.3203 14.2031C65.4453 14.5469 65.5547 14.9297 65.6484 15.3516C65.7422 15.7734 65.8125 16.1953 65.8594 16.6172C65.9219 17.0391 65.9531 17.3984 65.9531 17.6953ZM63.3281 21.5391C63.3438 21.3828 63.3516 21.2344 63.3516 21.0938C63.3516 20.9375 63.3516 20.7812 63.3516 20.625C63.3516 20.125 63.3281 19.6562 63.2812 19.2188C63.25 18.7812 63.2109 18.4531 63.1641 18.2344C63.0391 17.7031 62.9219 17.1719 62.8125 16.6406C62.7188 16.1094 62.6016 15.6406 62.4609 15.2344C62.3203 14.8438 62.1953 14.5391 62.0859 14.3203C61.9766 14.0859 61.8672 13.8672 61.7578 13.6641C61.6172 13.3828 61.4766 13.0781 61.3359 12.75C61.2109 12.4219 61.0781 12.1016 60.9375 11.7891C60.7969 11.4766 60.6484 11.1797 60.4922 10.8984C60.3516 10.6016 60.1953 10.3594 60.0234 10.1719C59.9766 10.125 59.8984 10.0703 59.7891 10.0078C59.6797 9.94531 59.5547 9.88281 59.4141 9.82031C59.2891 9.74219 59.1641 9.67188 59.0391 9.60938C58.9297 9.54688 58.8516 9.5 58.8047 9.46875C58.3672 9.21875 58 9.00781 57.7031 8.83594C57.4062 8.66406 57.125 8.51562 56.8594 8.39062C56.5938 8.25 56.3281 8.13281 56.0625 8.03906C55.7969 7.92969 55.4844 7.82812 55.125 7.73438C54.8125 7.57812 54.5312 7.47656 54.2812 7.42969C54.0312 7.38281 53.7266 7.35938 53.3672 7.35938C53.1484 7.35938 53.0391 7.40625 53.0391 7.5C53.0547 7.57812 53.0469 7.71094 53.0156 7.89844C52.9219 8.44531 52.8203 9 52.7109 9.5625C52.6172 10.1094 52.5469 10.6562 52.5 11.2031C52.4219 12.1719 52.3594 13.1719 52.3125 14.2031C52.2812 15.2188 52.2266 16.1484 52.1484 16.9922C52.1016 17.2422 52.0312 17.4844 51.9375 17.7188C51.8438 17.9531 51.7891 18.125 51.7734 18.2344C51.7734 18.2812 51.8047 18.3516 51.8672 18.4453C51.9297 18.5391 51.9609 18.5781 51.9609 18.5625C51.8828 19.1406 51.7969 19.7266 51.7031 20.3203C51.6094 20.9141 51.5234 21.5 51.4453 22.0781C51.3828 22.5781 51.3359 23.0859 51.3047 23.6016C51.2734 24.1016 51.2266 24.5859 51.1641 25.0547C51.1016 25.5234 51.0078 25.9609 50.8828 26.3672C50.7734 26.7578 50.6094 27.0781 50.3906 27.3281C50.2812 27.3906 50.2266 27.4375 50.2266 27.4688C50.2266 27.5156 50.2969 27.5703 50.4375 27.6328C50.5781 27.6953 50.7109 27.7266 50.8359 27.7266C51.1172 27.7266 51.4375 27.7031 51.7969 27.6562C52.1719 27.6094 52.5391 27.5547 52.8984 27.4922C53.2578 27.4141 53.6016 27.3438 53.9297 27.2812C54.2734 27.2188 54.5547 27.1719 54.7734 27.1406C55.2578 27.0781 55.8047 27.0234 56.4141 26.9766C57.0234 26.9297 57.5234 26.8672 57.9141 26.7891C58.3203 26.7109 58.6094 26.625 58.7812 26.5312C58.9688 26.4375 59.1484 26.3516 59.3203 26.2734C59.6797 26.1016 60.0391 25.9453 60.3984 25.8047C60.7578 25.6484 61.1016 25.4922 61.4297 25.3359C61.7734 25.1797 62.0859 25.0156 62.3672 24.8438C62.6641 24.6562 62.9297 24.4297 63.1641 24.1641C63.2109 24.0703 63.2422 23.9297 63.2578 23.7422C63.2891 23.5391 63.3047 23.3203 63.3047 23.0859C63.3203 22.8359 63.3281 22.5781 63.3281 22.3125C63.3281 22.0312 63.3281 21.7734 63.3281 21.5391Z" fill="white"/>
</svg>
