<svg width="6000" height="6000" viewBox="0 0 6000 6000" fill="none" xmlns="http://www.w3.org/2000/svg">
<path d="M5669.95 330.047C5449.72 109.816 5184.74 -0.199937 4875.02 0.000272766H1124.98C815.056 0.000272766 550.078 110.016 330.047 330.047C109.816 550.278 -0.199937 815.256 0.000272766 1124.98V4875.02C0.000272766 5184.94 110.016 5449.92 330.047 5669.95C550.278 5890.18 815.256 6000.2 1124.98 6000H2000.1C2057.16 6000 2100.11 5998 2128.94 5993.99C2162.51 5987.36 2192.82 5969.45 2214.83 5943.24C2243.46 5913.21 2257.77 5869.66 2257.77 5812.6L2255.67 5546.82C2254.47 5377.45 2253.87 5243.3 2253.87 5144.4L2163.77 5160.02C2106.71 5170.43 2034.54 5175.03 1947.25 5173.83C1856.16 5172.09 1765.37 5162.95 1675.76 5146.5C1580.29 5129.19 1490.43 5089 1413.88 5029.38C1333.53 4968.62 1273.61 4884.81 1242.1 4789.13L1203.06 4699.03C1170.03 4628.03 1128.7 4561.2 1079.93 4499.92C1023.88 4427.05 967.216 4377.6 909.956 4351.57L882.927 4332.05C864.159 4318.45 847.027 4302.73 831.874 4285.2C817.4 4268.91 805.546 4250.47 796.737 4230.54C788.929 4212.12 795.435 4197.11 816.257 4185.49C837.079 4173.48 874.919 4167.58 929.777 4167.78L1007.86 4179.79C1059.91 4190 1124.28 4221.13 1200.96 4273.19C1278.46 4326.02 1343.2 4395.48 1390.46 4476.5C1450.52 4583.01 1522.8 4664.4 1607.29 4720.66C1691.98 4776.72 1777.27 4804.74 1863.16 4804.74C1949.05 4804.74 2023.32 4798.24 2085.99 4785.22C2146.68 4772.65 2205.66 4752.89 2261.68 4726.36C2285.1 4551.98 2348.87 4417.84 2452.98 4323.94C2317.96 4310.6 2184.14 4287.1 2052.66 4253.67C1924.34 4218.46 1800.95 4167.31 1685.37 4101.41C1564.42 4035.56 1457.58 3946.58 1370.94 3839.53C1287.65 3735.42 1219.28 3598.78 1165.82 3429.6C1112.57 3260.22 1085.94 3064.82 1085.94 2843.39C1085.94 2528.46 1188.75 2260.17 1394.36 2038.54C1298.26 1801.69 1307.37 1536.21 1421.69 1242.1C1497.37 1218.48 1609.39 1236 1757.75 1294.66C1906.1 1353.32 2014.82 1403.37 2083.89 1444.82C2152.96 1486.86 2208.32 1522.1 2249.96 1550.53C2494.09 1482.46 2746.42 1448.3 2999.85 1449.02C3257.72 1449.02 3507.78 1482.86 3750.04 1550.53L3898.39 1456.83C4012.51 1388.32 4132.88 1330.8 4257.87 1285.05C4395.82 1232.99 4501.33 1218.68 4574.4 1242.1C4691.53 1536.41 4701.84 1801.99 4605.34 2038.84C4811.15 2260.07 4914.06 2528.35 4914.06 2843.69C4914.06 3065.12 4887.33 3261.02 4833.88 3431.4C4780.62 3601.98 4711.65 3738.73 4626.96 3841.63C4538.54 3947.06 4431.31 4035.14 4310.73 4101.41C4184.59 4171.68 4062.17 4222.43 3943.44 4253.67C3811.96 4287.21 3678.14 4310.8 3543.12 4324.24C3678.26 4441.36 3745.93 4626.16 3746.13 4878.62V5812.6C3746.13 5856.65 3752.64 5892.39 3765.65 5919.82C3771.73 5932.98 3780.39 5944.79 3791.12 5954.54C3801.85 5964.29 3814.43 5971.79 3828.12 5976.57C3856.75 5986.99 3882.18 5993.39 3904.4 5995.8C3926.62 5998.6 3958.46 5999.9 3999.9 5999.7H4875.02C5184.94 5999.7 5449.92 5889.68 5669.95 5669.65C5889.98 5449.62 6000 5184.64 6000 4874.72V1124.98C6000 815.056 5890.18 550.078 5669.95 330.047Z" fill="black"/>
</svg>
