<svg width="6000" height="6000" viewBox="0 0 6000 6000" fill="none" xmlns="http://www.w3.org/2000/svg">
<path d="M3308.4 0C3645.89 0.899978 3817.18 2.69994 3965.07 6.89983L4023.27 8.99977C4090.46 11.3997 4156.76 14.3996 4236.86 17.9995C4556.04 32.9992 4773.83 83.398 4964.92 157.496C5162.91 233.694 5329.7 336.892 5496.49 503.388C5649.09 653.304 5767.13 834.721 5842.38 1034.97C5916.47 1226.07 5966.87 1443.86 5981.87 1763.36C5985.47 1843.16 5988.47 1909.45 5990.87 1976.95L5992.67 2035.15C5997.17 2182.75 5998.97 2354.04 5999.57 2691.53L5999.87 2915.33V3308.32C6000.6 3527.14 5998.3 3745.95 5992.97 3964.7L5991.17 4022.9C5988.77 4090.4 5985.77 4156.7 5982.17 4236.5C5967.17 4555.99 5916.17 4773.48 5842.38 4964.88C5767.13 5165.13 5649.09 5346.55 5496.49 5496.47C5346.58 5649.07 5165.17 5767.12 4964.92 5842.36C4773.83 5916.46 4556.04 5966.86 4236.86 5981.86L4023.27 5990.85L3965.07 5992.65C3817.18 5996.85 3645.89 5998.95 3308.4 5999.55L3084.61 5999.85H2691.93C2473.02 6000.63 2254.11 5998.33 2035.27 5992.95L1977.07 5991.16C1905.86 5988.46 1834.66 5985.36 1763.48 5981.86C1444.3 5966.86 1226.51 5916.46 1035.12 5842.36C834.978 5767.08 653.67 5649.04 503.845 5496.47C351.136 5346.58 232.992 5165.16 157.663 4964.88C83.5665 4773.78 33.1689 4555.99 18.1697 4236.5L9.17017 4022.9L7.67028 3964.7C2.14037 3745.95 -0.35977 3527.14 0.17063 3308.32V2691.53C-0.659696 2472.72 1.54043 2253.9 6.77032 2035.15L8.8702 1976.95C11.2701 1909.45 14.2699 1843.16 17.8697 1763.36C32.869 1443.86 83.2664 1226.37 157.363 1034.97C232.867 834.639 351.22 653.215 504.145 503.388C653.884 350.856 835.085 232.816 1035.12 157.496C1226.51 83.398 1444 32.9992 1763.48 17.9995C1843.28 14.3996 1909.87 11.3997 1977.07 8.99977L2035.27 7.1998C2254.01 1.86977 2472.82 -0.430399 2691.63 0.299971L3308.4 0ZM3000.02 1499.96C2602.21 1499.96 2220.7 1658 1939.41 1939.29C1658.12 2220.59 1500.09 2602.11 1500.09 2999.93C1500.09 3397.74 1658.12 3779.26 1939.41 4060.56C2220.7 4341.86 2602.21 4499.89 3000.02 4499.89C3397.82 4499.89 3779.34 4341.86 4060.63 4060.56C4341.92 3779.26 4499.94 3397.74 4499.94 2999.93C4499.94 2602.11 4341.92 2220.59 4060.63 1939.29C3779.34 1658 3397.82 1499.96 3000.02 1499.96ZM3000.02 2099.95C3118.2 2099.93 3235.23 2123.19 3344.43 2168.4C3453.62 2213.61 3552.84 2279.88 3636.43 2363.44C3720.01 2447 3786.32 2546.2 3831.56 2655.38C3876.81 2764.56 3900.1 2881.59 3900.12 2999.78C3900.14 3117.96 3876.89 3235 3831.68 3344.2C3786.47 3453.39 3720.19 3552.62 3636.64 3636.2C3553.08 3719.79 3453.89 3786.1 3344.71 3831.34C3235.53 3876.59 3118.5 3899.89 3000.32 3899.91C2761.64 3899.91 2532.73 3805.09 2363.96 3636.31C2195.18 3467.53 2100.36 3238.62 2100.36 2999.93C2100.36 2761.24 2195.18 2532.33 2363.96 2363.55C2532.73 2194.77 2761.64 2099.95 3000.32 2099.95M4575.24 1049.97C4475.79 1049.97 4380.41 1089.48 4310.09 1159.81C4239.77 1230.13 4200.26 1325.51 4200.26 1424.97C4200.26 1524.42 4239.77 1619.8 4310.09 1690.12C4380.41 1760.45 4475.79 1799.96 4575.24 1799.96C4674.69 1799.96 4770.07 1760.45 4840.39 1690.12C4910.71 1619.8 4950.22 1524.42 4950.22 1424.97C4950.22 1325.51 4910.71 1230.13 4840.39 1159.81C4770.07 1089.48 4674.69 1049.97 4575.24 1049.97Z" fill="black"/>
</svg>
