<svg width="6000" height="6000" viewBox="0 0 6000 6000" fill="none" xmlns="http://www.w3.org/2000/svg">
<path d="M5333.33 0C5510.14 0 5679.71 70.2379 5804.74 195.262C5929.76 320.286 6000 489.856 6000 666.667V5333.33C6000 5510.14 5929.76 5679.71 5804.74 5804.74C5679.71 5929.76 5510.14 6000 5333.33 6000H666.667C489.856 6000 320.286 5929.76 195.262 5804.74C70.2379 5679.71 0 5510.14 0 5333.33V666.667C0 489.856 70.2379 320.286 195.262 195.262C320.286 70.2379 489.856 0 666.667 0H5333.33ZM5166.67 5166.67V3400C5166.67 3111.8 5052.18 2835.4 4848.39 2631.61C4644.6 2427.82 4368.2 2313.33 4080 2313.33C3796.67 2313.33 3466.67 2486.67 3306.67 2746.67V2376.67H2376.67V5166.67H3306.67V3523.33C3306.67 3266.67 3513.33 3056.67 3770 3056.67C3893.77 3056.67 4012.47 3105.83 4099.98 3193.35C4187.5 3280.87 4236.67 3399.57 4236.67 3523.33V5166.67H5166.67ZM1293.33 1853.33C1441.85 1853.33 1584.29 1794.33 1689.31 1689.31C1794.33 1584.29 1853.33 1441.85 1853.33 1293.33C1853.33 983.333 1603.33 730 1293.33 730C1143.93 730 1000.64 789.351 894.997 894.997C789.351 1000.64 730 1143.93 730 1293.33C730 1603.33 983.333 1853.33 1293.33 1853.33ZM1756.67 5166.67V2376.67H833.333V5166.67H1756.67Z" fill="black"/>
</svg>
